<svg id="logo" xmlns="http://www.w3.org/2000/svg" xmlns:xlink="http://www.w3.org/1999/xlink" viewBox="0 0 520 419.66" shape-rendering="geometricPrecision" text-rendering="geometricPrecision">
    <style>
#eSqVN1vrjXu36_tr {animation: eSqVN1vrjXu36_tr__tr 5000ms linear infinite normal forwards}@keyframes eSqVN1vrjXu36_tr__tr { 0% {transform: translate(270px,80.004997px) rotate(0deg)} 50% {transform: translate(270px,80.004997px) rotate(180deg)} 100% {transform: translate(270px,80.004997px) rotate(359deg)}}
</style>
    <path d="M120.21,392.12h3.56v26.38h-3.56Z" fill="#777"></path>
    <path d="M127.84,392.12h3.31l3.54,10.53c1.066654,3.125426,1.974481,6.302821,2.72,9.52q-.43-3.06-.64-5.54c-.13-1.65-.2-3.21-.2-4.67v-9.84h3.57v26.38h-3.33l-4-11.87c-.37-1.11-.71-2.24-1-3.4s-.62-2.38-.89-3.66c0-.16-.06-.35-.12-.58s-.11-.49-.18-.79c0,.3.07.55.09.76s0,.39.05.54l.19,2.68.19,3.27c0,.18,0,.4,0,.66s0,.56,0,.89l.19,11.5h-3.5Z" fill="#777"></path>
    <path d="M144.21,392.12h9.5v3h-6v8.34h5.37v3h-5.37v12h-3.55Z" fill="#777"></path>
    <path d="M156.44,392.12h4.69c1.565085-.122879,3.115992.37255,4.32,1.38q1.8,1.8,1.8,5.49c.068791,1.572245-.257839,3.136635-.95,4.55-.541044,1.078158-1.534534,1.859019-2.71,2.13l4.85,12.83h-3.6L160,405.58v12.92h-3.56ZM160,403.81c1.07175.101244,2.135323-.262993,2.92-1c.661949-.94.966888-2.085294.86-3.23.010384-.704258-.049918-1.407782-.18-2.1-.088982-.507879-.283133-.991554-.57-1.42-.247512-.359107-.595319-.637353-1-.8-.457681-.18245-.947414-.270874-1.44-.26h-.59Z" fill="#777"></path>
    <path d="M175,392.12h2.77l5.66,26.38h-3.52l-1-5.14h-5.23l-1,5.14h-3.42Zm3.4,18.49l-.78-4.2c-.53-2.86-.95-5.92-1.28-9.16-.16,1.58-.37,3.18-.62,4.81s-.55,3.34-.89,5.17l-.65,3.38Z" fill="#777"></path>
    <path d="M192.71,392.12h4.68q3.39,0,4.92,1.71t1.54,5.47c0,3.51-1,5.77-3.09,6.8-1.43702.536041-2.968053.774202-4.5.7v11.7h-3.55Zm3.55,11.64c1.094474.119662,2.191643-.200496,3.05-.89.664473-.930933.966683-2.072219.85-3.21.097035-1.210846-.18988-2.421486-.82-3.46-.627212-.767121-1.592763-1.175047-2.58-1.09h-.5Z" fill="#777"></path>
    <path d="M206.59,392.12h4.68c1.565085-.122879,3.115992.37255,4.32,1.38q1.8,1.8,1.8,5.49c.068791,1.572245-.257839,3.136635-.95,4.55-.541044,1.078158-1.534534,1.859019-2.71,2.13l4.85,12.83h-3.58l-4.84-12.92v12.92h-3.55Zm3.55,11.69c1.07175.101244,2.135323-.262993,2.92-1c.661949-.94.966888-2.085294.86-3.23.010384-.704258-.049918-1.407782-.18-2.1-.088982-.507879-.283133-.991554-.57-1.42-.247512-.359107-.595319-.637353-1-.8-.457681-.18245-.947414-.270874-1.44-.26h-.6Z" fill="#777"></path>
    <path d="M234.24,406q0,7-1.56,9.93c-.989595,1.936462-3.040788,3.093948-5.21,2.94-2.285167.163944-4.436935-1.090592-5.42-3.16q-1.55-3.09-1.55-11c0-4.69.51-8,1.54-10c1.004853-1.946395,3.07566-3.103843,5.26-2.94c1.921271-.13992,3.779592.717476,4.92,2.27.820112,1.311489,1.345559,2.78547,1.54,4.32.3771,2.528369.537682,5.084315.48,7.64Zm-3.73.38q0-6.85-.61-9.09c-.41-1.51-1.25-2.26-2.52-2.26-1.234891-.024005-2.303717.85396-2.52,2.07-.532844,2.756211-.74093,5.565361-.62,8.37-.105797,2.683102.112446,5.36917.65,8c.2042,1.218056,1.254967,2.112686,2.49,2.12c1.195676.009802,2.230897-.828434,2.47-2c.552988-2.374715.775089-4.814467.66-7.25Z" fill="#777"></path>
    <path d="M240.36,392.12h3.57v20.25c.114503,1.542186-.200479,3.085945-.91,4.46-.992436,1.385742-2.64178,2.145809-4.34,2-1.040951.025959-2.071978-.207741-3-.68v-3.56c.695686.493635,1.503291.806367,2.35.91c1.57,0,2.35-1.1,2.35-3.3v-20.08Z" fill="#777"></path>
    <path d="M248,392.12h9.45v3h-5.9v8.35h5.23v3h-5.23v9h5.9v3h-9.45Z" fill="#777"></path>
    <path d="M271.07,392.55v3.19c-.707017-.382052-1.488099-.607167-2.29-.66-.770416-.025708-1.529454.19116-2.17.62-.668511.488375-1.187894,1.153184-1.5,1.92-.440065,1.05139-.73283,2.158514-.87,3.29-.202709,1.561582-.296269,3.1354-.28,4.71q0,9.78,5,9.77c.732461-.036469,1.45007-.220123,2.11-.54v3.26c-.878328.484095-1.867174.732168-2.87.72q-8,0-8-13.09q0-7.08,2-10.53c1.157704-2.220108,3.498873-3.56628,6-3.45c1.007408.02104,1.993733.292537,2.87.79Z" fill="#777"></path>
    <path d="M272,392.12h11.56v3.11h-4v23.27h-3.48v-23.27h-4.08Z" fill="#777"></path>
    <path d="M295,392.67v3.46c-.830859-.660035-1.841615-1.053882-2.9-1.13-.872438-.015563-1.708421.349495-2.29,1-.614533.691447-.93399,1.595979-.89,2.52-.019768.835199.202499,1.658283.64,2.37.315974.487038.67401.945457,1.07,1.37.49.56,1.13,1.23,1.92,2c1.177284,1.107228,2.172817,2.392984,2.95,3.81.562974,1.188971.833821,2.495211.79,3.81.059212,1.822912-.556865,3.60348-1.73,5-1.110947,1.271444-2.7323,1.979411-4.42,1.93-1.397944.037345-2.766755-.403638-3.88-1.25v-3.52c.97586.813525,2.182725,1.299769,3.45,1.39.870515.035216,1.708431-.33391,2.27-1c.581841-.745086.873242-1.676148.82-2.62.015039-.899831-.20193-1.78837-.63-2.58-.266644-.442853-.567564-.864141-.9-1.26-.39-.47-.88-1-1.46-1.58-.9-.89-1.64-1.68-2.23-2.36-.50254-.547915-.945055-1.147992-1.32-1.79-.587202-1.178025-.869159-2.484655-.82-3.8-.097372-1.77584.473399-3.523825,1.6-4.9c1.107789-1.229559,2.706509-1.900582,4.36-1.83c1.260835.018011,2.49761.347818,3.6.96Z" fill="#777"></path>
    <path d="M306.53,392.12h4.68q3.39,0,4.92,1.71t1.54,5.47c0,3.51-1,5.77-3.09,6.8-1.43702.536041-2.968053.774202-4.5.7v11.7h-3.55Zm3.55,11.64c1.078337.111622,2.156992-.208379,3-.89.668851-.929169.974735-2.070899.86-3.21.097035-1.210846-.18988-2.421486-.82-3.46-.627212-.767121-1.592763-1.175047-2.58-1.09h-.5Z" fill="#777"></path>
    <path d="M318.3,392.12h3.51l1.59,9.74.27,1.76.56,3.83c.09.65.18,1.24.25,1.78s.14,1,.2,1.45l.17,1.3c0-.27.06-.5.08-.7s.05-.38.07-.52l.46-3.06.6-4l.16-1c.06-.31.1-.58.15-.82l1.71-9.74h3.31l-5.18,26.38h-2.81Z" fill="#777"></path>
    <path d="M332.81,392.12h11.57v3.11h-4v23.27h-3.49v-23.27h-4.1Z" fill="#777"></path>
    <path d="M347.05,414.54c.549344.00195,1.073701.229774,1.45.63.403132.394987.630306.935616.630306,1.5s-.227174,1.105013-.630306,1.5c-.402637.380452-.936053.591671-1.49.59-.284602.002922-.566879-.051492-.83-.16-.248829-.10358-.476075-.252816-.67-.44-.395618-.399188-.61832-.937985-.62-1.5-.008971-.558247.215815-1.094832.62-1.48.404345-.41476.96079-.64601,1.54-.64Z" fill="#777"></path>
    <path d="M359.9,392.12h3.55v23.38h5.81v3h-9.36Z" fill="#777"></path>
    <path d="M368.79,392.12h11.57v3.11h-4v23.27h-3.48v-23.27h-4.1Z" fill="#777"></path>
    <path d="M382.32,392.12h4.38c1.135851-.024909,2.268863.123462,3.36.44.872257.302394,1.651016.826161,2.26,1.52c1.056317,1.225042,1.785602,2.697372,2.12,4.28.486744,2.398106.698113,4.843943.63,7.29.056268,2.389633-.178797,4.777221-.7,7.11-.334083,1.530212-1.121677,2.924183-2.26,4q-1.92,1.73-6.92,1.72h-2.87Zm3.56,23.27q3.24,0,4.34-2t1.12-7.64c0-4.07-.35-6.86-1.07-8.39-.708912-1.513623-2.284206-2.426894-3.95-2.29h-.44Z" fill="#777"></path>
    <path d="M400.25,414.54c.549344.00195,1.073701.229774,1.45.63.403132.394987.630306.935616.630306,1.5s-.227174,1.105013-.630306,1.5c-.402637.380452-.936053.591671-1.49.59-.281549.004988-.560978-.049535-.82-.16-.787895-.32168-1.302059-1.08897-1.3-1.94-.008971-.558247.215815-1.094832.62-1.48.404345-.41476.96079-.64601,1.54-.64Z" fill="#777"></path>
    <path d="M35.5,311.41v47h9v-50.5q-4.39,1.97-9,3.5Z" fill="#aaa"></path>
    <path d="M145.5,358.41h9v-48.84c-3-1.33-6-2.64-9-4Z" fill="#aaa"></path>
    <path d="M204.77,358.41h9v-31.81c-3-.56-6.31-1.21-9-1.76Z" fill="#aaa"></path>
    <path d="M265.5,358.41h9v-26.51c-3,0-6-.08-9-.14Z" fill="#aaa"></path>
    <path d="M326.82,327.82v30.59h9v-32.21c-2.16.41-8.14,1.48-9,1.62Z" fill="#aaa"></path>
    <path d="M375.5,358.41h9v-47.65c-2.94,1.3-6,2.62-9,3.92Z" fill="#aaa"></path>
    <path d="M475.5,358.41h9v-47q-4.61-1.53-9-3.5Z" fill="#aaa"></path>
    <path d="M418.75,299.45v120.21h22.5v-147.16c-5.760532,10.303184-13.390801,19.44255-22.5,26.95Z" fill="#aaa"></path>
    <polyline points="78.75,309.33 78.75,419.66 101.25,419.66 101.25,319.33" fill="#aaa"></polyline>
    <rect width="520" height="22.5" rx="0" ry="0" transform="translate(0 358.41)" fill="#aaa"></rect>
    <path d="M307.3,307.77v0c-24.653325,2.508372-49.513355,2.172833-74.09-1v0L222.82,328c17.279501,2.590088,34.727459,3.893671,52.2,3.9c14.28473.015814,28.555196-.902814,42.72-2.75Z" fill="#aaa"></path>
    <path d="M450,257.46v33.9c19.05,17,42.46,25.55,70,25.55v-22.5c-29.63,0-52.67-12.14-70-36.95Z" fill="#aaa"></path>
    <path d="M70,257.46c-17.33,24.81-40.37,37-70,37v22.5c27.55,0,51-8.58,70-25.56Z" fill="#aaa"></path>
    <g id="eSqVN1vrjXu36_tr" transform="translate(270,80.004997) rotate(0)">
        <path d="M309.79,84.09C309.93,82.75,350,81.38,350,80s-40.07-2.75-40.21-4.09c-.132416-1.342599-.332672-2.677638-.6-4-.27-1.3-.6-2.58-1-3.83s18.32-10.88,17.81-12.08-20.21,6.07-20.83,4.93c-.610541-1.129817-1.278067-2.227898-2-3.29-.72-1.07-1.49-2.1-2.3-3.08s26.03-29.66,25.13-30.56-29.57,26-30.56,25.13-2-1.58-3.08-2.3c-1.062102-.721933-2.160183-1.389459-3.29-2-1.14-.62,6.13-20.32,4.93-20.83s-10.85,18.19-12.11,17.8-2.53-.72-3.83-1c-1.322362-.267328-2.657401-.467584-4-.6C272.75,40.07,271.38,0,270,0s-2.75,40.07-4.09,40.21c-1.342599.132416-2.677638.332672-4,.6-1.3.27-2.58.6-3.83,1s-10.88-18.32-12.08-17.81s6.07,20.21,4.93,20.83c-1.129817.610541-2.227898,1.278067-3.29,2-1.07.72-2.1,1.49-3.08,2.3s-29.66-26.03-30.56-25.13s26,29.57,25.13,30.56-1.58,2-2.3,3.08c-.721933,1.062102-1.389459,2.160183-2,3.29-.62,1.14-20.32-6.13-20.83-4.93s18.19,10.85,17.8,12.11-.72,2.53-1,3.83c-.267328,1.322362-.467584,2.657401-.6,4-.13,1.31-40.2,2.68-40.2,4.06s40.07,2.75,40.21,4.09c.132416,1.342599.332672,2.677638.6,4c.27,1.3.6,2.58,1,3.83s-18.32,10.88-17.81,12.08s20.21-6.07,20.83-4.93c.610541,1.129817,1.278067,2.227898,2,3.29.72,1.07,1.49,2.1,2.3,3.08s-26.03,29.66-25.13,30.56s29.57-25.95,30.56-25.13s2,1.58,3.08,2.3c1.062102.721933,2.160183,1.389459,3.29,2c1.14.62-6.13,20.32-4.93,20.83s10.85-18.19,12.11-17.8s2.53.72,3.83,1c1.322362.267328,2.657401.467584,4,.6c1.34.14,2.71,40.21,4.09,40.21s2.75-40.07,4.09-40.21c1.342599-.132416,2.677638-.332672,4-.6c1.3-.27,2.58-.6,3.83-1s10.85,18.31,12.05,17.8-6.07-20.21-4.93-20.83c1.129817-.610541,2.227898-1.278067,3.29-2c1.07-.72,2.1-1.49,3.08-2.3s29.66,26.03,30.56,25.13-25.95-29.57-25.13-30.56s1.58-2,2.3-3.08c.721933-1.062102,1.389459-2.160183,2-3.29.62-1.14,20.32,6.13,20.83,4.93s-18.19-10.85-17.8-12.11.72-2.53,1-3.83c.262976-1.312627.459891-2.637627.59-3.97ZM270,115c-19.329966,0-35-15.670034-35-35s15.670034-35,35-35s35,15.670034,35,35-15.670034,35-35,35Z" transform="translate(-270,-80.004997)" fill="#d4af37"></path>
    </g>
    <path d="M291.81,90c-.101768,4.801266-2.117914,9.362796-5.6,12.67-2.178905,2.0559-4.750205,3.651058-7.56,4.69-3.217153,1.242219-6.641581,1.859906-10.09,1.82-3.3457.054054-6.670216-.540216-9.79-1.75-5.134468-1.83811-9.069097-6.037033-10.57-11.28-.408547-1.315263-.624125-2.682838-.64-4.06.014221-4.097533,1.311631-8.087681,3.71-11.41l.64.49c-1.446265,2.423162-2.241976,5.17887-2.31,8-.060747,2.974517.767979,5.899434,2.38,8.4c1.578088,2.425631,3.777831,4.383644,6.37,5.67c2.516788,1.311082,5.312193,1.997071,8.15,2c2.401943.066658,4.789882-.38705,7-1.33c3.347007-1.378134,5.531048-4.640372,5.53-8.26-.062301-1.80566-.672679-3.549597-1.75-5-1.357524-1.865598-3.131082-3.389215-5.18-4.45l-11.41-6.72Q252,74.39,252,66.33c0-4.8,1.69-8.51,5-11.13q4.21-3.29,11.42-3.29q4.62,0,11.76.7h5.46L284.25,64h-.71c.058955-2.438035-1.05719-4.755897-3-6.23-2.221988-1.652119-4.943388-2.492188-7.71-2.38-2.506324-.144681-5.003298.412896-7.21,1.61-1.552864.890297-2.569558,2.486357-2.72,4.27-.168442,1.126705.201826,2.267131,1,3.08.607716.677567,1.315989,1.257677,2.1,1.72l1.89,1.08c.3808.238691.778524.449252,1.19.63l13.09,7.49c2.724659,1.472382,5.064435,3.565505,6.83,6.11c1.791175,2.520865,2.7714,5.52782,2.81,8.62Z" fill="#d4af37"></path>
    <path d="M350,154.41l20,22.5h48.75v63.67c.013709,2.959749-.441948,5.902954-1.35,8.72l-.18.52c-.3.87-.62,1.73-1,2.59v.07c-.77961,1.896313-1.674618,3.743103-2.68,5.53l-.13.24c-.5.87-1,1.73-1.56,2.59v0c-2.413,3.726899-5.211767,7.189326-8.35,10.33v0c-12.29,12.4-31.13,22.33-55.35,29v0l10,20.5c17.66-5.27,32.88-12.25,45.35-20.68v0l1-.72.74-.51v0q3.64-2.56,7-5.3v0l.14-.12q3.36-2.79,6.38-5.74l.56-.58c1.18-1.18,2.32-2.37,3.42-3.59v0c1.55-1.73,3-3.49,4.39-5.3l.13-.16q2-2.68,3.8-5.47c0-.06.07-.12.11-.17c1.386187-2.201213,2.654636-4.474407,3.8-6.81c3.23-6.23,5.4-12.4,6.07-17.69v0c.007753-.089833.007753-.180167,0-.27.08-.64.15-1.25.19-1.94v-91.21Z" fill="#777"></path>
    <path d="M339.47,302.43v0L270,160L201.24,301v0l-10.09,20.68v0v0c7.4,1.88,14.94,3.56,22.62,4.92l10.32-21.13v0L270,211.32l46.49,95.31v0v0l8.31,17l1.73,3.55v0l.29.6l2.57-.41q10.51-1.83,20.17-4.31Z" fill="#777"></path>
    <path d="M113.07,256.91h16.93c36.93,0,56.25-25.78,56.25-51.25s-19.32-51.25-56.25-51.25h-3c5.299215,2.666837,10.277884,5.927799,14.84,9.72c13.39,11.14,21.27,25.54,21.87,39.78c0,.58.06,1.17.06,1.75c0,14.31-10.44,28.75-33.75,28.75h-28.77v-57.5h28.75c4.940685-.0671,9.856996.703821,14.54,2.28-11.36-14-31.08-24.78-54.54-24.78h-11.25v154.92c3.528162,2.390729,7.299104,4.401898,11.25,6c3.663839,1.564271,7.421029,2.900161,11.25,4v-42.62c19.86,18.3,47.69,33,81.3,42.62v0l10-20.55v0C158.4,289.51,131,275,113.07,256.91Z" fill="#777"></path>
</svg>